<svg width="32" height="32" viewBox="0 0 32 32" fill="none" xmlns="http://www.w3.org/2000/svg">
  <!-- Background circle with gradient -->
  <defs>
    <linearGradient id="bgGradient" x1="0%" y1="0%" x2="100%" y2="100%">
      <stop offset="0%" style="stop-color:#3B82F6;stop-opacity:1" />
      <stop offset="100%" style="stop-color:#8B5CF6;stop-opacity:1" />
    </linearGradient>
    <linearGradient id="iconGradient" x1="0%" y1="0%" x2="100%" y2="100%">
      <stop offset="0%" style="stop-color:#FFFFFF;stop-opacity:1" />
      <stop offset="100%" style="stop-color:#F8FAFC;stop-opacity:1" />
    </linearGradient>
  </defs>
  
  <!-- Background circle -->
  <circle cx="16" cy="16" r="16" fill="url(#bgGradient)"/>
  
  <!-- Main tool icon - represents multiple tools -->
  <g fill="url(#iconGradient)">
    <!-- PDF icon -->
    <rect x="6" y="8" width="6" height="8" rx="1" fill="url(#iconGradient)" opacity="0.9"/>
    <rect x="7" y="9" width="4" height="1" fill="url(#bgGradient)"/>
    <rect x="7" y="11" width="4" height="1" fill="url(#bgGradient)"/>
    <rect x="7" y="13" width="3" height="1" fill="url(#bgGradient)"/>
    
    <!-- Image icon -->
    <rect x="20" y="8" width="6" height="6" rx="1" fill="url(#iconGradient)" opacity="0.9"/>
    <circle cx="22" cy="10" r="1" fill="url(#bgGradient)"/>
    <path d="M20 14L22 12L24 14L26 12" stroke="url(#bgGradient)" stroke-width="0.8" fill="none"/>
    
    <!-- Audio icon -->
    <rect x="6" y="18" width="6" height="6" rx="1" fill="url(#iconGradient)" opacity="0.9"/>
    <path d="M8 20L8 22M10 19L10 23M12 20L12 22" stroke="url(#bgGradient)" stroke-width="0.8" fill="none"/>
    
    <!-- Video icon -->
    <rect x="20" y="18" width="6" height="6" rx="1" fill="url(#iconGradient)" opacity="0.9"/>
    <polygon points="22,20 22,24 26,22" fill="url(#bgGradient)"/>
  </g>
  
  <!-- Central "O" for OpenSource -->
  <circle cx="16" cy="16" r="3" fill="none" stroke="url(#iconGradient)" stroke-width="1.5" opacity="0.8"/>
  <circle cx="16" cy="16" r="1.5" fill="url(#iconGradient)" opacity="0.6"/>
</svg>
